<svg version="1.2" xmlns="http://www.w3.org/2000/svg" viewBox="0 0 250 250" width="250" height="250">
	<title>New Project</title>
	<style>
		.s0 { fill: #faaf40 } 
		.s1 { fill: #ade0f3 } 
	</style>
	<g id="Layer 1">
	</g>
	<path id="&lt;Path&gt;" class="s0" d="m166.3 190.2c-42.3-3.4-73.8-40.4-70.5-82.7 3.3-42.2 40.3-73.8 82.6-70.5 6.8 0.5 13.2 2 19.3 4.1-17.1-14.4-38.6-23.9-62.5-25.8-60.9-4.8-114.1 40.7-118.9 101.5-4.8 60.8 40.7 114 101.5 118.8 50.2 4 95.1-26.3 112-71.2-15.4 17.4-38.5 27.7-63.5 25.8z"/>
	<path id="&lt;Path&gt;" class="s1" d="m196.8 66.4l11.7 25 26.5 7.6-20.2 18.8 1 27.6-24.2-13.4-25.9 9.5 5.3-27.1-17-21.8 27.4-3.3z"/>
</svg>