<svg version="1.2" xmlns="http://www.w3.org/2000/svg" viewBox="0 0 250 250" width="250" height="250">
	<title>New Project</title>
	<style>
		.s0 { fill: #faaf40 } 
	</style>
	<g id="Layer 1">
		<path id="&lt;Path&gt;" class="s0" d="m125 177c-29.2 0-52.7-23.6-52.7-52.7 0-29.2 23.5-52.8 52.7-52.8 29.2 0 52.7 23.6 52.7 52.8 0 29.1-23.5 52.7-52.7 52.7z"/>
		<path id="&lt;Path&gt;" class="s0" d="m125 57.2c-3.7 0-6.6-3-6.6-6.6v-29c0-3.6 2.9-6.6 6.6-6.6 3.7 0 6.6 3 6.6 6.6v29c0 3.6-2.9 6.6-6.6 6.6z"/>
		<path id="&lt;Path&gt;" class="s0" d="m125 235c-3.7 0-6.6-3-6.6-6.6v-29c0-3.6 2.9-6.6 6.6-6.6 3.7 0 6.6 3 6.6 6.6v29c0 3.6-2.9 6.6-6.6 6.6z"/>
		<path id="&lt;Path&gt;" class="s0" d="m228.4 131.6h-29c-3.6 0-6.6-2.9-6.6-6.6 0-3.7 3-6.6 6.6-6.6h29c3.6 0 6.6 2.9 6.6 6.6 0 3.7-3 6.6-6.6 6.6z"/>
		<path id="&lt;Path&gt;" class="s0" d="m21.6 131.6h29c3.6 0 6.6-2.9 6.6-6.6 0-3.7-3-6.6-6.6-6.6h-29c-3.6 0-6.6 2.9-6.6 6.6 0 3.7 3 6.6 6.6 6.6z"/>
		<path id="&lt;Path&gt;" class="s0" d="m72.4 79c-1.7 0-3.4-0.6-4.7-1.9l-20.5-20.5c-2.6-2.6-2.6-6.8 0-9.4 2.6-2.6 6.8-2.6 9.4 0l20.5 20.5c2.6 2.6 2.6 6.8 0 9.4-1.3 1.3-3 1.9-4.7 1.9z"/>
		<path id="&lt;Path&gt;" class="s0" d="m198.1 204.7c-1.7 0-3.4-0.6-4.7-1.9l-20.5-20.5c-2.6-2.6-2.6-6.8 0-9.4 2.6-2.6 6.8-2.6 9.4 0l20.5 20.5c2.6 2.6 2.6 6.8 0 9.4-1.3 1.3-3 1.9-4.7 1.9z"/>
		<path id="&lt;Path&gt;" class="s0" d="m51.9 204.7c-1.7 0-3.4-0.6-4.7-1.9-2.6-2.6-2.6-6.8 0-9.4l20.5-20.5c2.6-2.6 6.8-2.6 9.4 0 2.6 2.6 2.6 6.8 0 9.4l-20.5 20.5c-1.3 1.3-3 1.9-4.7 1.9z"/>
		<path id="&lt;Path&gt;" class="s0" d="m177.6 79c-1.7 0-3.4-0.6-4.7-1.9-2.6-2.6-2.6-6.8 0-9.4l20.5-20.5c2.6-2.6 6.8-2.6 9.4 0 2.6 2.6 2.6 6.8 0 9.4l-20.5 20.5c-1.3 1.3-3 1.9-4.7 1.9z"/>
		<path id="&lt;Path&gt; copy" class="s0" d="m125 177.9c-29.2 0-52.7-23.6-52.7-52.8 0-29.1 23.5-52.7 52.7-52.7 29.2 0 52.7 23.6 52.7 52.7 0 29.2-23.5 52.8-52.7 52.8z"/>
		<path id="&lt;Path&gt; copy 2" class="s0" d="m125 57.2c-3.7 0-6.6-3-6.6-6.6v-29c0-3.6 2.9-6.6 6.6-6.6 3.7 0 6.6 3 6.6 6.6v29c0 3.6-2.9 6.6-6.6 6.6z"/>
		<path id="&lt;Path&gt; copy 3" class="s0" d="m125 235c-3.7 0-6.6-3-6.6-6.6v-29c0-3.6 2.9-6.6 6.6-6.6 3.7 0 6.6 3 6.6 6.6v29c0 3.6-2.9 6.6-6.6 6.6z"/>
		<path id="&lt;Path&gt; copy 4" class="s0" d="m228.4 131.6h-29c-3.6 0-6.6-2.9-6.6-6.6 0-3.7 3-6.6 6.6-6.6h29c3.6 0 6.6 2.9 6.6 6.6 0 3.7-3 6.6-6.6 6.6z"/>
		<path id="&lt;Path&gt; copy 5" class="s0" d="m21.6 131.6h29c3.6 0 6.6-2.9 6.6-6.6 0-3.7-3-6.6-6.6-6.6h-29c-3.6 0-6.6 2.9-6.6 6.6 0 3.7 3 6.6 6.6 6.6z"/>
		<path id="&lt;Path&gt; copy 6" class="s0" d="m72.4 79c-1.7 0-3.4-0.6-4.7-1.9l-20.5-20.5c-2.6-2.6-2.6-6.8 0-9.4 2.6-2.6 6.8-2.6 9.4 0l20.5 20.5c2.6 2.6 2.6 6.8 0 9.4-1.3 1.3-3 1.9-4.7 1.9z"/>
		<path id="&lt;Path&gt; copy 7" class="s0" d="m198.1 204.7c-1.7 0-3.4-0.6-4.7-1.9l-20.5-20.5c-2.6-2.6-2.6-6.8 0-9.4 2.6-2.6 6.8-2.6 9.4 0l20.5 20.5c2.6 2.6 2.6 6.8 0 9.4-1.3 1.3-3 1.9-4.7 1.9z"/>
		<path id="&lt;Path&gt; copy 8" class="s0" d="m51.9 204.7c-1.7 0-3.4-0.6-4.7-1.9-2.6-2.6-2.6-6.8 0-9.4l20.5-20.5c2.6-2.6 6.8-2.6 9.4 0 2.6 2.6 2.6 6.8 0 9.4l-20.5 20.5c-1.3 1.3-3 1.9-4.7 1.9z"/>
		<path id="&lt;Path&gt; copy 9" class="s0" d="m177.6 79c-1.7 0-3.4-0.6-4.7-1.9-2.6-2.6-2.6-6.8 0-9.4l20.5-20.5c2.6-2.6 6.8-2.6 9.4 0 2.6 2.6 2.6 6.8 0 9.4l-20.5 20.5c-1.3 1.3-3 1.9-4.7 1.9z"/>
	</g>
</svg>