<svg version="1.2" xmlns="http://www.w3.org/2000/svg" viewBox="0 0 250 250" width="250" height="250">
	<title>New Project</title>
	<style>
		.s0 { fill: #82d2ec } 
		.s1 { fill: #42bfec } 
	</style>
	<path id="&lt;Path&gt;" class="s0" d="m151 89q-0.1 0-0.1 0c0-0.4 0.1-0.7 0.1-1.1 0-27-21.9-48.9-49-48.9-27 0-48.9 21.9-48.9 48.9q0 0.1 0 0.1c-21.2 1-38.1 18.5-38.1 39.9 0 22.1 17.9 40 40 40h96c21.8 0 39.4-17.7 39.4-39.5 0-21.8-17.6-39.4-39.4-39.4z"/>
	<path id="&lt;Path&gt;" class="s1" d="m195.7 132.3q0 0-0.1 0c0-0.3 0.1-0.7 0.1-1 0-27.1-21.9-49-49-49-27 0-48.9 21.9-48.9 49q0 0 0 0.1c-21.2 1-38.1 18.4-38.1 39.9 0 22 17.9 39.9 40 39.9h96c21.8 0 39.5-17.6 39.5-39.4 0-21.8-17.7-39.5-39.5-39.5z"/>
	<g id="Layer 1">
	</g>
</svg>