<svg version="1.2" xmlns="http://www.w3.org/2000/svg" viewBox="0 0 250 250" width="250" height="250"><style>.a{fill:#42bfec}.b{fill:#ade0f3}</style><path class="a" d="m182.5 74.3q-0.1 0-0.1 0c0-0.4 0.1-0.8 0.1-1.2 0-32.1-26-58.1-58.1-58.1-32.1 0-58.2 26-58.2 58.1q0 0.1 0 0.1c-25.1 1.2-45.2 21.9-45.2 47.4 0 26.2 21.3 47.5 47.5 47.5h114c25.9 0 46.8-21 46.8-46.9 0-25.9-20.9-46.9-46.8-46.9z"/><path class="b" d="m69.9 147.6c-5.5 0-9.8-4.4-9.8-9.8 0-5.4 4.3-9.8 9.8-9.8 5.4 0 9.7 4.4 9.7 9.8 0 5.4-4.3 9.8-9.7 9.8z"/><path class="b" d="m69.9 177.8c-5.5 0-9.8-4.3-9.8-9.7 0-5.5 4.3-9.8 9.8-9.8 5.4 0 9.7 4.3 9.7 9.8 0 5.4-4.3 9.7-9.7 9.7z"/><path class="b" d="m69.9 206.6c-5.5 0-9.8-4.4-9.8-9.8 0-5.4 4.3-9.8 9.8-9.8 5.4 0 9.7 4.4 9.7 9.8 0 5.4-4.3 9.8-9.7 9.8z"/><path class="b" d="m69.9 235.3c-5.5 0-9.8-4.4-9.8-9.8 0-5.4 4.3-9.8 9.8-9.8 5.4 0 9.7 4.4 9.7 9.8 0 5.4-4.3 9.8-9.7 9.8z"/><path class="b" d="m106.7 147.6c-5.4 0-9.8-4.4-9.8-9.8 0-5.4 4.4-9.8 9.8-9.8 5.4 0 9.8 4.4 9.8 9.8 0 5.4-4.4 9.8-9.8 9.8z"/><path class="b" d="m106.7 177.8c-5.4 0-9.8-4.3-9.8-9.7 0-5.5 4.4-9.8 9.8-9.8 5.4 0 9.8 4.3 9.8 9.8 0 5.4-4.4 9.7-9.8 9.7z"/><path class="b" d="m106.7 206.6c-5.4 0-9.8-4.4-9.8-9.8 0-5.4 4.4-9.8 9.8-9.8 5.4 0 9.8 4.4 9.8 9.8 0 5.4-4.4 9.8-9.8 9.8z"/><path class="b" d="m106.7 235.3c-5.4 0-9.8-4.4-9.8-9.8 0-5.4 4.4-9.8 9.8-9.8 5.4 0 9.8 4.4 9.8 9.8 0 5.4-4.4 9.8-9.8 9.8z"/><path class="b" d="m143.6 147.6c-5.4 0-9.8-4.4-9.8-9.8 0-5.4 4.4-9.8 9.8-9.8 5.4 0 9.8 4.4 9.8 9.8 0 5.4-4.4 9.8-9.8 9.8z"/><path class="b" d="m143.6 177.8c-5.4 0-9.8-4.3-9.8-9.7 0-5.5 4.4-9.8 9.8-9.8 5.4 0 9.8 4.3 9.8 9.8 0 5.4-4.4 9.7-9.8 9.7z"/><path class="b" d="m143.6 206.6c-5.4 0-9.8-4.4-9.8-9.8 0-5.4 4.4-9.8 9.8-9.8 5.4 0 9.8 4.4 9.8 9.8 0 5.4-4.4 9.8-9.8 9.8z"/><path class="b" d="m143.6 235.3c-5.4 0-9.8-4.4-9.8-9.8 0-5.4 4.4-9.8 9.8-9.8 5.4 0 9.8 4.4 9.8 9.8 0 5.4-4.4 9.8-9.8 9.8z"/><path class="b" d="m180.5 147.6c-5.4 0-9.8-4.4-9.8-9.8 0-5.4 4.4-9.8 9.8-9.8 5.4 0 9.8 4.4 9.8 9.8 0 5.4-4.4 9.8-9.8 9.8z"/><path class="b" d="m180.5 177.8c-5.4 0-9.8-4.3-9.8-9.7 0-5.5 4.4-9.8 9.8-9.8 5.4 0 9.8 4.3 9.8 9.8 0 5.4-4.4 9.7-9.8 9.7z"/><path class="b" d="m180.5 206.6c-5.4 0-9.8-4.4-9.8-9.8 0-5.4 4.4-9.8 9.8-9.8 5.4 0 9.8 4.4 9.8 9.8 0 5.4-4.4 9.8-9.8 9.8z"/><path class="b" d="m180.5 235.3c-5.4 0-9.8-4.4-9.8-9.8 0-5.4 4.4-9.8 9.8-9.8 5.4 0 9.8 4.4 9.8 9.8 0 5.4-4.4 9.8-9.8 9.8z"/></svg>