<svg version="1.2" xmlns="http://www.w3.org/2000/svg" viewBox="0 0 250 250" width="250" height="250"><style>.a{fill:#42bfec}.b{fill:#ade0f3}</style><path class="a" d="m129.2 95.9q0 0.1-0.1 0.1c0.1-0.3 0.1-0.6 0.1-0.9 0-22.7-18.4-41.1-41.1-41.1-22.7 0-41.1 18.4-41.1 41.1q0 0 0 0.1c-17.8 0.8-32 15.5-32 33.5 0 18.5 15 33.5 33.6 33.5h80.6c18.3 0 33.1-14.8 33.1-33.1 0-18.3-14.8-33.2-33.1-33.2z"/><path class="b" d="m215.7 127.7h-66.3c-3.2 0-5.7-2.5-5.7-5.7 0-3.1 2.5-5.7 5.7-5.7h66.3c4.8 0 8.6-3.8 8.6-8.6 0-4.7-3.8-8.6-8.6-8.6h-8.4c-3.1 0-5.7-2.5-5.7-5.7 0-3.1 2.6-5.7 5.7-5.7h8.4c11.1 0 20 9 20 20 0 11.1-8.9 20-20 20z"/><path class="b" d="m194.1 195.9c-14.1 0-25.5-11.4-25.5-25.5 0-9.6 7.8-17.4 17.4-17.4 9.6 0 17.5 7.8 17.5 17.4v3c0 3.1-2.6 5.7-5.7 5.7-3.2 0-5.7-2.6-5.7-5.7v-3c0-3.3-2.7-6-6.1-6-3.3 0-6 2.7-6 6 0 7.8 6.3 14.1 14.1 14.1 7.8 0 14.1-6.3 14.1-14.1v-5.8c0-10.6-8.6-19.3-19.3-19.3h-89.4c-3.1 0-5.7-2.5-5.7-5.7 0-3.1 2.6-5.7 5.7-5.7h89.4c16.9 0 30.7 13.8 30.7 30.7v5.8c0 14.1-11.4 25.5-25.5 25.5z"/></svg>